<svg width="111" height="367" viewBox="0 0 111 367" fill="none" xmlns="http://www.w3.org/2000/svg">
<g id="character">
<g id="legs">
<path id="Vector" d="M42.1034 311.269C41.3992 315.476 41.8549 319.795 43.4215 323.762C45.0404 328.547 44.453 333.461 39.8254 336.212C33.8367 339.737 33.278 344.636 30.3983 347.502C28.1596 350.08 25.2088 351.939 21.9167 352.846C18.2094 353.982 14.3175 354.39 10.4552 354.049C3.9221 353.605 2.46077 351.943 2.1026 349.364C1.74443 346.785 4.09402 345.568 6.95941 343.762C12.375 340.353 17.9195 330.18 20.4124 325.811C22.9053 321.441 23.7076 315.71 23.7076 308.934C23.7076 302.157 18.8508 248.617 18.4496 235.866C17.7046 211.883 19.3952 175.693 23.8938 151.538L24.252 148.257C33.9513 160.865 57.3759 157.627 84.4251 145.879L85.6715 148.744C88.5952 155.392 90.3032 162.511 90.7147 169.762C92.1473 205.937 95.4282 239.362 95.4282 239.362C95.772 242.815 98.6947 248.89 100.4 266.827C100.973 272.873 100.715 279.062 100.801 285.122C100.915 294.707 101.03 304.292 101.317 313.862C101.318 316.275 101.805 318.662 102.749 320.882C103.895 323.49 105.615 325.854 106.302 328.648C107.262 332.444 106.202 336.427 105.815 340.324C105.519 343.363 105.639 346.429 106.173 349.436C106.632 352.086 107.42 354.823 106.675 357.402C105.815 360.425 103.064 362.488 100.314 363.992C97.5629 365.496 88.8521 366.299 87.4194 365.898C85.9867 365.496 83.852 366.399 82.9065 364.307C82.5053 363.433 82.0755 362.559 83.279 359.938C88.2647 349.035 85.5426 325.71 84.0956 318.962C82.6486 312.215 79.7259 301.928 77.5912 293.833C72.7917 275.552 69.1526 265.322 64.0522 247.185C59.7541 231.826 55.1695 210.766 55.1695 210.766L48.006 237.328C48.699 244.609 48.8284 251.933 48.3929 259.234C47.6909 270.48 42.8484 304.936 42.1034 311.269Z" fill="#EBEBEB"/>
</g>
<g id="arm left">
<path id="Vector_2" d="M12.7487 160.033C11.9808 161.256 11.3922 162.582 11.0008 163.973C10.1268 167.411 11.2443 170.993 11.7887 174.489C11.9514 175.03 11.9695 175.604 11.8413 176.155C11.7132 176.705 11.4431 177.212 11.0581 177.626C10.9715 177.724 10.8625 177.801 10.7403 177.848C10.6181 177.895 10.4863 177.913 10.356 177.898C10.1474 177.807 9.98294 177.637 9.89762 177.426C9.09955 175.974 8.48362 174.429 8.06377 172.827C7.87763 174.314 7.84882 175.817 7.97782 177.311C8.19931 178.492 8.14535 179.708 7.8202 180.864C7.72643 181.144 7.57622 181.402 7.37886 181.622C7.1815 181.842 6.94119 182.02 6.6727 182.143C6.40422 182.267 6.11326 182.334 5.8178 182.34C5.52235 182.347 5.22864 182.293 4.95481 182.182C4.33557 181.688 3.93023 180.975 3.82297 180.191C3.59374 179.288 3.3502 178.385 3.12097 177.497C2.79202 176.258 2.53845 174.999 2.36164 173.729C2.04685 171.409 2.21388 169.048 2.85234 166.795C3.49079 164.542 4.58694 162.445 6.07231 160.634C6.807 159.647 7.79789 158.879 8.9377 158.414C9.48926 158.239 10.0713 158.182 10.6463 158.246C11.2212 158.31 11.7764 158.494 12.2759 158.786C12.9063 159.13 13.1212 159.402 12.7487 160.033Z" fill="#ABABAB"/>
<path id="left" d="M0.555705 165.434C1.04014 160.801 1.78632 156.2 2.7907 151.651C3.93686 147.353 7.28938 131.049 8.40688 126.407C9.83957 120.304 11.6018 114.587 12.705 110.819C13.9944 106.607 15.5703 102.223 18.9945 93.3549C22.8914 83.3261 23.3642 81.5209 25.9574 76.4921C27.6479 73.2256 30.8428 69.1424 38.4504 68.0392C41.4591 67.6094 39.1954 101.206 39.1954 101.206C39.1954 101.206 31.6451 111.235 29.1666 115.605C27.8628 117.911 24.8685 125.304 21.0432 134.874C18.8369 140.376 16.5016 147.181 16.5016 147.181C15.4414 150.62 16.1578 151.594 16.7452 154.345C17.4669 157.894 17.8887 161.498 18.0059 165.118C18.0919 167.626 18.0919 169.417 18.0059 171.308C18.0059 172.826 16.8025 173.228 15.5417 171.551C14.109 169.589 14.2952 167.912 13.7365 166.007C13.0201 163.643 11.7021 159.617 10.6132 160.405C9.52439 161.193 8.29224 164.316 6.81656 166.136C5.26244 167.993 4.49176 170.382 4.66753 172.798C4.73916 175.778 5.99996 179.804 5.36958 182.282C4.73919 184.761 3.23485 185.148 2.76206 184.145C2.28928 183.142 1.01416 176.981 0.598684 174.846C0.0548401 171.734 0.0403108 168.551 0.555705 165.434Z" fill="#EBEBEB"/>
</g>
<g id="Chest">
<path id="Vector_3" d="M69.5238 65.4045C74.2231 66.8372 83.9224 68.7856 83.9224 68.7856C85.616 71.6153 86.6356 74.7968 86.9024 78.0838C87.0457 88.6571 86.9024 97.3392 85.3551 105.119C83.8078 112.898 81.7734 120.076 81.7161 128.042C81.7161 133.572 85.7849 148.887 85.7849 148.887C79.2681 150.068 72.8246 151.623 66.4865 153.544C60.0824 155.822 42.9044 161.08 35.4401 158.716C30.6247 157.096 26.6178 153.684 24.2507 149.188C24.2507 148.83 25.0673 136.036 27.1877 129.045C27.5316 123.085 27.0588 105.018 27.0588 105.018C22.1733 98.2131 23.0759 90.7775 28.3196 79.6741C33.9357 67.7541 35.4114 68.8716 39.8528 67.7541C44.2941 66.6366 47.4603 65.5191 47.6466 63.456C48.0764 58.7568 68.4206 64.8887 68.4206 64.8887L69.5238 65.4045Z" fill="#EBEBEB"/>
</g>
<g id="Head">
<path id="Vector_4" d="M45.0397 1.80628C44.3288 2.27364 43.7275 2.88949 43.2775 3.61146C42.8766 4.49329 42.3971 5.33722 41.8448 6.13302C40.5983 7.56571 38.4493 7.68032 36.5438 7.89522C34.3798 8.04049 32.3 8.79001 30.5408 10.0586C29.6802 10.7148 29.0229 11.6012 28.6452 12.6154C28.2674 13.6296 28.1845 14.73 28.4061 15.7894C28.9505 17.7092 30.7844 19.2421 30.6984 21.2336C30.5697 21.9366 30.3035 22.6072 29.915 23.2071C29.5266 23.807 29.0236 24.3243 28.4348 24.7294C27.2533 25.5495 26.2736 26.6273 25.5694 27.8813C25.2498 28.5526 25.084 29.2868 25.084 30.0303C25.084 30.7738 25.2498 31.508 25.5694 32.1794C25.9194 32.8626 26.4315 33.4497 27.0609 33.8892C27.6903 34.3288 28.4178 34.6075 29.1798 34.7009C28.1482 34.3571 27.876 32.5805 28.3488 31.6063C28.8216 30.6321 29.7815 30.4888 30.899 30.4028C32.0165 30.3169 32.9907 30.8326 34.0223 30.7467C35.0186 30.5587 35.9833 30.2308 36.8877 29.7724C37.4464 29.5289 42.2602 26.993 41.9307 26.3197C43.4961 29.4612 46.0336 32.0138 49.1658 33.5977C51.143 34.5863 53.3206 35.1737 55.2404 36.2769C57.5482 37.7433 59.5048 39.6999 60.9712 42.0076C62.8633 44.7434 64.3675 47.7278 65.4412 50.876C65.6986 52.1446 66.0579 53.3903 66.5157 54.601C66.7879 55.1311 66.8023 56.0337 67.1175 56.4492C67.4327 56.8647 68.063 56.4492 68.4785 56.177C70.5273 54.601 73.5216 55.303 75.8712 54.2572C76.3389 54.0537 76.7774 53.7887 77.175 53.4692C78.3888 52.5692 79.3348 51.3558 79.9114 49.9591C80.355 48.406 80.6429 46.8126 80.771 45.2025C81.2868 42.4088 83.135 41.2053 84.4817 38.9703C85.4049 37.1485 85.7829 35.099 85.5705 33.0676C84.6184 23.2734 81.8651 29.536 82.7966 21.9337C74.5345 1.18059 63.2727 3.35466 57.1286 1.18059C54.8885 0.387954 52.5117 0.0550274 50.1401 0.201671C48.3294 0.284276 46.5715 0.837314 45.0397 1.80628Z" fill="#5959A8"/>
<path id="Vector_5" d="M40.6139 13.7852C38.7371 14.4012 35.5278 19.387 33.8802 35.1896C32.5191 48.2844 36.0293 53.9149 39.5394 55.6628C42.2829 56.8199 45.2295 57.419 48.2071 57.425L47.5911 64.13C47.4335 65.5627 46.7458 68.6286 43.6082 73.7434C47.7487 75.4339 58.7374 75.5629 63.3364 73.6287C68.1789 71.5943 68.4368 64.832 68.4368 64.832C68.13 64.5898 67.8956 64.2679 67.7591 63.9016C67.6227 63.5353 67.5895 63.1385 67.6631 62.7546C67.8207 60.4193 68.6946 50.2902 68.6946 50.2902C68.6946 50.2902 71.1732 52.4679 75.6002 49.4879C79.2536 47.0379 80.2135 41.6654 77.9785 38.7427C77.3784 38.0349 76.6211 37.4775 75.767 37.1149C74.9129 36.7523 73.9858 36.5946 73.0599 36.6545C72.1339 36.7144 71.2348 36.9901 70.4346 37.4597C69.6343 37.9293 68.955 38.5796 68.4511 39.3587C68.4511 39.3587 63.4367 44.4161 64.4968 32.9546C64.4968 32.9546 65.0843 28.7711 59.5397 24.5304C51.7889 18.6133 42.7343 20.4328 40.6139 13.7852Z" fill="#EBEBEB"/>
</g>
<path id="Vector_6" d="M48.2078 57.4251C51.7031 57.5287 55.1818 56.9042 58.4229 55.5912C60.6257 54.3349 62.5703 52.6723 64.1536 50.6914C63.4871 53.1698 61.9644 55.332 59.8556 56.7947C55.5575 59.9753 47.9785 59.5025 47.9785 59.5025L48.2078 57.4251Z" fill="#ABABAB"/>
<g id="arm right">
<path id="Vector_7" d="M82.0184 180.346C81.9274 180.467 81.8668 180.609 81.8419 180.759C81.8169 180.908 81.8284 181.062 81.8752 181.206C81.9366 181.298 82.0168 181.377 82.1107 181.436C82.2045 181.495 82.3098 181.534 82.4196 181.55C83.2757 181.771 84.1806 181.708 84.9975 181.369C85.8144 181.031 86.4987 180.435 86.9469 179.673C87.5343 178.856 87.9641 177.896 88.4942 177.022C88.6948 176.707 90.5573 173.899 90.7579 175.59C90.7483 176.774 90.5943 177.953 90.2994 179.1C90.0702 180.819 89.4971 182.481 89.1246 184.172C88.171 187.003 87.0122 189.761 85.6575 192.424C84.8838 193.942 85.1274 195.977 86.1732 196.607C87.0042 197.123 88.0501 195.92 89.3395 193.642C90.6289 191.364 91.4169 189.773 92.0186 188.656C92.6203 187.538 93.3367 186.077 93.3367 186.077C93.0118 187.395 92.6197 188.696 92.1619 189.974C91.5172 191.521 90.7292 193.484 90.0988 194.859C89.7872 195.511 89.645 196.231 89.685 196.952C89.7251 197.673 89.9462 198.372 90.328 198.986C90.8008 199.487 91.5172 200.189 92.8639 197.811C93.7685 196.26 94.5818 194.657 95.2995 193.011C95.9572 193.109 96.629 193.027 97.2443 192.775C97.8595 192.523 98.3953 192.11 98.7953 191.578C100.088 189.718 101.206 187.742 102.133 185.676C102.784 185.424 103.375 185.039 103.868 184.545C104.362 184.052 104.747 183.461 104.999 182.81C105.815 180.647 106.833 177.252 107.563 174.515C108.294 171.779 107.148 165.059 107.234 160.36C107.234 158.927 109.455 136.907 110.171 128.612C110.844 120.646 109.469 117.078 107.735 113.468C105.242 108.282 101.303 96.7629 96.0875 84.6853C93.2221 78.1379 92.0187 73.9974 88.924 71.218C85.8294 68.4386 82.4339 68.0661 74.9553 66.9199C74.5255 71.0317 72.3621 90.1152 79.6975 102.393C84.7406 112.25 89.7263 123.526 89.7263 123.526C89.7263 123.526 91.9183 158.784 91.947 159.472C92.1073 160.248 91.9692 161.056 91.5602 161.736C90.9728 162.552 90.3137 163.297 89.6547 164.056C87.862 166.143 86.5293 168.584 85.7435 171.22C85.1537 173.213 84.4603 175.173 83.666 177.094C83.1707 178.205 82.6209 179.29 82.0184 180.346Z" fill="#EBEBEB"/>
<path id="Vector_8" d="M83.5364 113.84L76.8887 96.332L84.0665 111.347L83.5364 113.84Z" fill="#ABABAB"/>
<path id="Vector_9" d="M89.7543 123.41C90.5852 135.76 91.6311 148.296 92.2041 160.66C92.0895 161.763 90.9004 162.709 90.313 163.526C87.1325 166.892 86.0149 171.276 84.482 175.546C84.1254 176.627 83.6896 177.681 83.1782 178.698L82.4619 180.245C82.3043 180.661 81.9174 181.004 82.4619 181.191C84.6969 181.907 86.5307 180.216 87.4619 178.325C88.0541 176.969 88.9572 175.772 90.0981 174.829C91.5308 174.314 91.144 176.52 91.015 177.251C90.6569 179.299 90.1124 181.835 89.5823 183.87C88.7364 186.589 87.6579 189.23 86.3588 191.764C85.5708 193.082 85.098 195.016 86.2012 196.22C87.7771 198.068 92.3331 187.308 93.2644 185.962L94.0667 184.357C93.553 186.814 92.7947 189.214 91.803 191.52C91.4305 192.366 90.5136 194.572 90.1554 195.403C89.9049 196.033 89.8312 196.72 89.9423 197.389C90.0534 198.058 90.345 198.684 90.7858 199.2C92.2185 200.532 94.74 194.071 95.3847 192.996C96.0443 193.09 96.7171 193.007 97.334 192.755C97.9508 192.504 98.4896 192.092 98.8948 191.563C98.4902 192.091 97.9644 192.514 97.3619 192.795C96.7657 193.084 96.0931 193.174 95.442 193.053C94.7114 194.314 92.4191 200.89 90.6425 199.386C90.1117 198.848 89.7459 198.17 89.5885 197.431C89.4311 196.692 89.4886 195.924 89.7543 195.217C90.1124 194.328 91.0007 192.194 91.3875 191.291C92.1457 189.576 92.7358 187.791 93.1497 185.962L93.5079 186.105C91.5738 189.572 90.1841 193.412 87.5766 196.435C87.4683 196.565 87.3342 196.672 87.1826 196.749C87.0311 196.825 86.8654 196.87 86.6959 196.879C86.5264 196.888 86.3568 196.863 86.1977 196.803C86.0386 196.744 85.8935 196.653 85.7714 196.535C84.4246 195.102 84.9691 192.996 85.7714 191.506C87.8519 187.512 89.3017 183.221 90.0695 178.784C90.4033 177.665 90.5152 176.492 90.399 175.331C88.3646 176.864 88.035 179.844 85.8 181.277C84.9117 182.007 81.6452 182.494 81.5879 180.847C81.8786 180.014 82.2331 179.204 82.6481 178.426C85.098 173.382 85.8717 167.365 89.9405 163.21L91.015 161.907C92.3188 160.646 91.5881 158.841 91.6311 157.207C90.9577 146.004 90.3273 134.571 89.7543 123.367V123.41Z" fill="#ABABAB"/>
<path id="Vector_10" d="M95.2988 192.968C96.5685 191.205 97.5905 189.277 98.3361 187.237C99.1117 185.194 99.6501 183.07 99.9407 180.904C99.3247 182.996 98.7086 185.059 97.935 187.079C97.1813 189.096 96.3008 191.062 95.2988 192.968Z" fill="#ABABAB"/>
<path id="Vector_11" d="M102.133 185.589C102.753 184.681 103.236 183.687 103.566 182.638C103.916 181.607 104.147 180.54 104.253 179.457C103.823 180.46 103.522 181.491 103.164 182.509L102.133 185.589Z" fill="#ABABAB"/>
<path id="Vector_12" d="M93.3354 186.035C94.2953 183.771 95.4701 180.404 95.4701 180.404C95.0601 183.028 94.1818 185.556 92.877 187.869L93.3354 186.035Z" fill="#ABABAB"/>
</g>
</g>
</svg>
